<svg width="2760" height="535" viewBox="0 0 2760 535" fill="none" xmlns="http://www.w3.org/2000/svg">
<path d="M444.818 217.4C486.827 224.01 516.712 264.832 495.082 301.445C454.805 369.622 376.833 409.925 295.183 397.077L326.388 198.765L444.818 217.4Z" fill="#6CA029"/>
<path d="M480.787 294.187C469.585 365.378 386.487 411.444 295.183 397.077C235.036 387.613 186.331 354.284 163.298 312.287C151.366 290.533 146.323 266.454 150.146 242.161C158.763 187.394 209.929 147.497 274.648 138.544C294.057 135.859 314.685 135.957 335.749 139.271C427.053 153.638 491.989 222.996 480.787 294.187Z" fill="#6CA029"/>
<path d="M480.787 294.187C469.585 365.378 386.487 411.444 295.183 397.077C235.036 387.613 186.331 354.284 163.298 312.287C151.366 290.533 146.323 266.454 150.146 242.161C158.763 187.394 209.929 147.497 274.648 138.544C294.057 135.859 314.685 135.957 335.749 139.271C427.053 153.638 491.989 222.996 480.787 294.187Z" fill="#6CA029"/>
<path fill-rule="evenodd" clip-rule="evenodd" d="M299.467 113.884C299.467 168.496 253.699 212.767 197.241 212.767C151.453 212.767 112.695 183.647 99.6822 143.508L35.1024 124.316C24.6459 121.208 24.6025 106.415 35.0405 103.246L99.9149 83.551C113.152 43.778 151.722 15 197.241 15C253.699 15 299.467 59.2717 299.467 113.884ZM167.463 132.972C183.909 132.972 197.241 119.452 197.241 102.775C197.241 86.0975 183.909 72.5778 167.463 72.5778C151.018 72.5778 137.686 86.0975 137.686 102.775C137.686 119.452 151.018 132.972 167.463 132.972Z" fill="#6CA029"/>
<path d="M297.901 99.8043C305.412 137.354 321.996 132.66 365.806 146.742C409.615 160.825 153.645 287.869 153.645 287.869C139.25 247.189 145.509 213.394 141.128 204.632C136.747 195.87 121.726 182.415 113.903 170.524C113.903 170.524 290.391 62.2549 297.901 99.8043Z" fill="#6CA029"/>
<path d="M239.072 362.97L260.56 430.504C265.74 446.783 288.561 447.366 294.565 431.372L315.425 375.8L327.214 427.379C332.416 450.137 364.814 450.191 370.092 427.45L382.078 375.8L309.167 333.242L239.072 362.97Z" fill="#6CA029"/>
<circle cx="157.713" cy="102.933" r="12.204" fill="#6CA029"/>
<path d="M604.75 222.3H666V374.9L637.3 378.05C627.267 378.05 619.333 375.133 613.5 369.3C607.667 363.467 604.75 355.533 604.75 345.5V222.3ZM637.3 378.05V328.7H746.15C747.783 331.267 749.3 334.65 750.7 338.85C752.1 343.05 752.8 347.6 752.8 352.5C752.8 361.133 750.933 367.55 747.2 371.75C743.467 375.95 738.333 378.05 731.8 378.05H637.3ZM666 303.15H604.75V164.2C607.55 163.733 611.633 163.15 617 162.45C622.6 161.517 627.967 161.05 633.1 161.05C644.767 161.05 653.167 163.033 658.3 167C663.433 170.967 666 178.667 666 190.1V303.15ZM952.275 291.95C952.275 310.617 948.425 326.717 940.725 340.25C933.259 353.783 922.642 364.283 908.875 371.75C895.342 378.983 879.242 382.6 860.575 382.6C842.142 382.6 826.042 378.983 812.275 371.75C798.509 364.517 787.775 354.133 780.075 340.6C772.609 327.067 768.875 310.85 768.875 291.95C768.875 273.517 772.725 257.533 780.425 244C788.125 230.467 798.859 220.083 812.625 212.85C826.392 205.383 842.375 201.65 860.575 201.65C879.009 201.65 894.992 205.383 908.525 212.85C922.292 220.317 933.025 230.817 940.725 244.35C948.425 257.883 952.275 273.75 952.275 291.95ZM860.575 248.2C851.009 248.2 843.425 252.05 837.825 259.75C832.459 267.217 829.775 277.95 829.775 291.95C829.775 306.417 832.459 317.383 837.825 324.85C843.192 332.317 850.775 336.05 860.575 336.05C870.375 336.05 877.959 332.317 883.325 324.85C888.692 317.15 891.375 306.183 891.375 291.95C891.375 278.183 888.575 267.45 882.975 259.75C877.609 252.05 870.142 248.2 860.575 248.2ZM960.654 412.7C966.254 409.9 970.804 406.75 974.304 403.25C977.804 399.75 980.37 395.667 982.004 391C983.637 386.567 984.454 381.083 984.454 374.55V295.8H1043.95V380.15C1043.95 395.317 1041.62 407.683 1036.95 417.25C1032.52 426.817 1026.45 433.817 1018.75 438.25C1011.29 442.917 1003 445.25 993.904 445.25C983.87 445.25 975.82 442.1 969.754 435.8C963.92 429.733 960.887 422.033 960.654 412.7ZM979.904 159.65C979.904 150.783 982.937 143.317 989.004 137.25C995.07 131.183 1002.89 128.15 1012.45 128.15C1022.02 128.15 1029.84 131.183 1035.9 137.25C1041.97 143.317 1045 150.783 1045 159.65C1045 168.283 1041.97 175.75 1035.9 182.05C1029.84 188.117 1022.02 191.15 1012.45 191.15C1002.89 191.15 995.07 188.117 989.004 182.05C982.937 175.75 979.904 168.283 979.904 159.65ZM1043.95 315.75H984.454V209.35C987.02 208.65 990.637 207.95 995.304 207.25C1000.2 206.55 1005.45 206.2 1011.05 206.2C1022.72 206.2 1031.12 208.183 1036.25 212.15C1041.39 215.883 1043.95 223.233 1043.95 234.2V315.75ZM1154.59 339.2C1158.56 339.2 1162.88 338.85 1167.54 338.15C1172.44 337.217 1176.06 336.05 1178.39 334.65V306.65L1153.19 308.75C1146.66 309.217 1141.29 310.617 1137.09 312.95C1132.89 315.283 1130.79 318.783 1130.79 323.45C1130.79 328.117 1132.54 331.967 1136.04 335C1139.78 337.8 1145.96 339.2 1154.59 339.2ZM1151.79 201.65C1177.23 201.65 1197.53 206.9 1212.69 217.4C1228.09 227.667 1235.79 243.767 1235.79 265.7V344.1C1235.79 350.167 1234.04 355.183 1230.54 359.15C1227.28 362.883 1223.31 366.15 1218.64 368.95C1211.18 373.383 1202.08 376.767 1191.34 379.1C1180.61 381.433 1168.36 382.6 1154.59 382.6C1130.09 382.6 1110.38 377.933 1095.44 368.6C1080.74 359.033 1073.39 344.683 1073.39 325.55C1073.39 309.45 1078.18 297.083 1087.74 288.45C1097.54 279.817 1112.36 274.45 1132.19 272.35L1178.04 267.45V265C1178.04 258.233 1175.01 253.45 1168.94 250.65C1163.11 247.617 1154.59 246.1 1143.39 246.1C1134.76 246.1 1126.13 247.033 1117.49 248.9C1109.09 250.767 1101.51 253.1 1094.74 255.9C1091.71 253.8 1089.14 250.65 1087.04 246.45C1084.94 242.017 1083.89 237.467 1083.89 232.8C1083.89 221.6 1089.84 213.667 1101.74 209C1108.51 206.433 1116.44 204.567 1125.54 203.4C1134.88 202.233 1143.63 201.65 1151.79 201.65ZM1451.09 331.15V229.65H1510.24V339.55C1510.24 345.383 1508.96 350.4 1506.39 354.6C1504.06 358.8 1500.21 362.533 1494.84 365.8C1488.07 370.233 1479.32 374.083 1468.59 377.35C1457.86 380.85 1445.61 382.6 1431.84 382.6C1411.54 382.6 1394.16 379.217 1379.69 372.45C1365.22 365.683 1354.14 355.65 1346.44 342.35C1338.74 328.817 1334.89 312.25 1334.89 292.65C1334.89 272.117 1338.86 255.2 1346.79 241.9C1354.72 228.367 1365.46 218.333 1378.99 211.8C1392.76 205.033 1408.04 201.65 1424.84 201.65C1433.01 201.65 1440.12 202.467 1446.19 204.1C1452.26 205.733 1457.27 207.6 1461.24 209.7V258C1458.21 255.667 1454.24 253.45 1449.34 251.35C1444.67 249.25 1439.31 248.2 1433.24 248.2C1425.31 248.2 1418.42 249.833 1412.59 253.1C1406.99 256.367 1402.67 261.267 1399.64 267.8C1396.61 274.333 1395.09 282.617 1395.09 292.65C1395.09 307.35 1398.24 318.2 1404.54 325.2C1411.07 332.2 1420.06 335.7 1431.49 335.7C1435.69 335.7 1439.54 335.233 1443.04 334.3C1446.54 333.133 1449.22 332.083 1451.09 331.15ZM1510.24 240.85H1450.74V148.8C1453.31 148.1 1456.92 147.4 1461.59 146.7C1466.49 146 1471.74 145.65 1477.34 145.65C1489.01 145.65 1497.41 147.633 1502.54 151.6C1507.67 155.333 1510.24 162.683 1510.24 173.65V240.85ZM1723.37 291.95C1723.37 310.617 1719.52 326.717 1711.82 340.25C1704.35 353.783 1693.74 364.283 1679.97 371.75C1666.44 378.983 1650.34 382.6 1631.67 382.6C1613.24 382.6 1597.14 378.983 1583.37 371.75C1569.6 364.517 1558.87 354.133 1551.17 340.6C1543.7 327.067 1539.97 310.85 1539.97 291.95C1539.97 273.517 1543.82 257.533 1551.52 244C1559.22 230.467 1569.95 220.083 1583.72 212.85C1597.49 205.383 1613.47 201.65 1631.67 201.65C1650.1 201.65 1666.09 205.383 1679.62 212.85C1693.39 220.317 1704.12 230.817 1711.82 244.35C1719.52 257.883 1723.37 273.75 1723.37 291.95ZM1631.67 248.2C1622.1 248.2 1614.52 252.05 1608.92 259.75C1603.55 267.217 1600.87 277.95 1600.87 291.95C1600.87 306.417 1603.55 317.383 1608.92 324.85C1614.29 332.317 1621.87 336.05 1631.67 336.05C1641.47 336.05 1649.05 332.317 1654.42 324.85C1659.79 317.15 1662.47 306.183 1662.47 291.95C1662.47 278.183 1659.67 267.45 1654.07 259.75C1648.7 252.05 1641.24 248.2 1631.67 248.2ZM1858.52 262.9L1929.92 258C1947.88 277.833 1964.1 295.567 1978.57 311.2C1993.27 326.833 2004.93 339.317 2013.57 348.65C2013.57 358.683 2010.18 366.617 2003.42 372.45C1996.65 378.05 1988.83 380.85 1979.97 380.85C1970.4 380.85 1962.58 378.517 1956.52 373.85C1950.45 368.95 1944.62 363.233 1939.02 356.7L1858.52 262.9ZM1930.27 284.25L1850.12 290.2L1961.07 162.8C1976.93 162.8 1988.25 165.833 1995.02 171.9C2002.02 177.733 2005.52 184.733 2005.52 192.9C2005.52 198.967 2004 204.683 2000.97 210.05C1997.93 215.417 1993.03 221.483 1986.27 228.25L1930.27 284.25ZM1827.02 222.3H1888.27V376.65C1885.7 377.35 1881.73 378.05 1876.37 378.75C1871 379.45 1865.52 379.8 1859.92 379.8C1847.78 379.8 1839.27 377.7 1834.37 373.5C1829.47 369.067 1827.02 361.483 1827.02 350.75V222.3ZM1888.27 303.15H1827.02V164.2C1829.82 163.733 1833.9 163.15 1839.27 162.45C1844.87 161.517 1850.23 161.05 1855.37 161.05C1867.03 161.05 1875.43 163.033 1880.57 167C1885.7 170.967 1888.27 178.667 1888.27 190.1V303.15ZM2034.69 159.65C2034.69 150.783 2037.72 143.317 2043.79 137.25C2049.86 131.183 2057.67 128.15 2067.24 128.15C2076.81 128.15 2084.62 131.183 2090.69 137.25C2096.76 143.317 2099.79 150.783 2099.79 159.65C2099.79 168.283 2096.76 175.75 2090.69 182.05C2084.62 188.117 2076.81 191.15 2067.24 191.15C2057.67 191.15 2049.86 188.117 2043.79 182.05C2037.72 175.75 2034.69 168.283 2034.69 159.65ZM2037.49 284.6H2096.99V376.65C2094.42 377.35 2090.69 378.05 2085.79 378.75C2081.12 379.45 2075.99 379.8 2070.39 379.8C2058.96 379.8 2050.56 377.817 2045.19 373.85C2040.06 369.883 2037.49 362.533 2037.49 351.8V284.6ZM2096.99 315.75H2037.49V209.35C2040.06 208.65 2043.67 207.95 2048.34 207.25C2053.24 206.55 2058.49 206.2 2064.09 206.2C2075.76 206.2 2084.16 208.183 2089.29 212.15C2094.42 215.883 2096.99 223.233 2096.99 234.2V315.75ZM2256.67 281.45C2254.57 292.183 2251.77 303.383 2248.27 315.05C2245 326.717 2241.85 337.567 2238.82 347.6C2235.78 357.633 2233.45 365.45 2231.82 371.05C2228.78 373.85 2224.35 376.067 2218.52 377.7C2212.92 379.567 2206.27 380.5 2198.57 380.5C2189.23 380.5 2180.95 379.217 2173.72 376.65C2166.72 373.85 2162.05 370 2159.72 365.1C2157.62 360.433 2155.28 353.9 2152.72 345.5C2150.15 336.867 2147.47 327.067 2144.67 316.1C2142.1 304.9 2139.53 293.35 2136.97 281.45C2134.4 269.317 2132.07 257.65 2129.97 246.45C2127.87 235.017 2126.12 224.75 2124.72 215.65C2127.98 212.383 2132.3 209.583 2137.67 207.25C2143.27 204.683 2149.33 203.4 2155.87 203.4C2164.03 203.4 2170.68 205.267 2175.82 209C2181.18 212.5 2184.45 218.683 2185.62 227.55C2187.95 245.283 2189.93 259.983 2191.57 271.65C2193.2 283.317 2194.48 292.767 2195.42 300C2196.58 307 2197.4 312.483 2197.87 316.45C2198.57 320.417 2199.15 323.567 2199.62 325.9H2201.02C2202.18 320.767 2204.05 312.95 2206.62 302.45C2209.18 291.717 2212.22 279.467 2215.72 265.7C2219.22 251.933 2222.6 238.05 2225.87 224.05C2230.53 221.483 2235.2 219.5 2239.87 218.1C2244.53 216.7 2250.13 216 2256.67 216C2264.83 216 2271.83 217.283 2277.67 219.85C2283.5 222.417 2287.23 226.383 2288.87 231.75C2292.6 245.283 2296.1 258.35 2299.37 270.95C2302.63 283.55 2305.43 294.633 2307.77 304.2C2310.33 313.767 2312.08 321 2313.02 325.9H2314.77C2317.33 307.933 2319.78 289.267 2322.12 269.9C2324.68 250.3 2327.02 230.583 2329.12 210.75C2337.52 205.85 2346.62 203.4 2356.42 203.4C2364.58 203.4 2371.35 205.15 2376.72 208.65C2382.08 212.15 2384.77 218.217 2384.77 226.85C2384.77 230.583 2384.18 236.183 2383.02 243.65C2381.85 250.883 2380.33 259.167 2378.47 268.5C2376.6 277.833 2374.38 287.633 2371.82 297.9C2369.48 308.167 2367.03 318.083 2364.47 327.65C2362.13 337.217 2359.8 345.85 2357.47 353.55C2355.37 361.017 2353.5 366.85 2351.87 371.05C2348.83 373.85 2343.82 376.067 2336.82 377.7C2330.05 379.567 2322.82 380.5 2315.12 380.5C2295.52 380.5 2283.97 375.6 2280.47 365.8C2278.6 360.2 2276.15 352.85 2273.12 343.75C2270.08 334.417 2267.05 324.267 2264.02 313.3C2261.22 302.333 2258.77 291.717 2256.67 281.45ZM2410.32 159.65C2410.32 150.783 2413.36 143.317 2419.42 137.25C2425.49 131.183 2433.31 128.15 2442.87 128.15C2452.44 128.15 2460.26 131.183 2466.32 137.25C2472.39 143.317 2475.42 150.783 2475.42 159.65C2475.42 168.283 2472.39 175.75 2466.32 182.05C2460.26 188.117 2452.44 191.15 2442.87 191.15C2433.31 191.15 2425.49 188.117 2419.42 182.05C2413.36 175.75 2410.32 168.283 2410.32 159.65ZM2413.12 284.6H2472.62V376.65C2470.06 377.35 2466.32 378.05 2461.42 378.75C2456.76 379.45 2451.62 379.8 2446.02 379.8C2434.59 379.8 2426.19 377.817 2420.82 373.85C2415.69 369.883 2413.12 362.533 2413.12 351.8V284.6ZM2472.62 315.75H2413.12V209.35C2415.69 208.65 2419.31 207.95 2423.97 207.25C2428.87 206.55 2434.12 206.2 2439.72 206.2C2451.39 206.2 2459.79 208.183 2464.92 212.15C2470.06 215.883 2472.62 223.233 2472.62 234.2V315.75Z" fill="#6CA029"/>
</svg>
