<svg width="650" height="650" viewBox="0 0 650 650" fill="none" xmlns="http://www.w3.org/2000/svg">
<circle cx="325" cy="325" r="325" fill="white"/>
<path d="M501.819 321.4C543.828 328.01 573.713 368.832 552.083 405.445C511.806 473.622 433.834 513.925 352.184 501.077L383.389 302.765L501.819 321.4Z" fill="#6CA029"/>
<path d="M537.788 398.187C526.586 469.378 443.488 515.444 352.184 501.077C292.037 491.613 243.332 458.284 220.299 416.287C208.367 394.533 203.324 370.454 207.147 346.161C215.764 291.394 266.93 251.497 331.649 242.544C351.058 239.859 371.686 239.957 392.75 243.271C484.054 257.638 548.99 326.996 537.788 398.187Z" fill="#6CA029"/>
<path d="M537.788 398.187C526.586 469.378 443.488 515.444 352.184 501.077C292.037 491.613 243.332 458.284 220.299 416.287C208.367 394.533 203.324 370.454 207.147 346.161C215.764 291.394 266.93 251.497 331.649 242.544C351.058 239.859 371.686 239.957 392.75 243.271C484.054 257.638 548.99 326.996 537.788 398.187Z" fill="#6CA029"/>
<path fill-rule="evenodd" clip-rule="evenodd" d="M356.467 217.884C356.467 272.496 310.699 316.767 254.241 316.767C208.453 316.767 169.695 287.647 156.682 247.508L92.1024 228.316C81.6459 225.208 81.6025 210.415 92.0405 207.246L156.915 187.551C170.152 147.778 208.722 119 254.241 119C310.699 119 356.467 163.272 356.467 217.884ZM224.463 236.972C240.909 236.972 254.241 223.452 254.241 206.775C254.241 190.098 240.909 176.578 224.463 176.578C208.018 176.578 194.686 190.098 194.686 206.775C194.686 223.452 208.018 236.972 224.463 236.972Z" fill="#6CA029"/>
<path d="M354.902 203.804C362.412 241.354 378.997 236.66 422.807 250.742C466.616 264.825 210.646 391.869 210.646 391.869C196.251 351.189 202.51 317.394 198.129 308.632C193.748 299.87 178.727 286.415 170.904 274.524C170.904 274.524 347.392 166.255 354.902 203.804Z" fill="#6CA029"/>
<path d="M296.072 466.97L317.56 534.504C322.74 550.783 345.561 551.366 351.565 535.372L372.425 479.8L384.214 531.379C389.416 554.137 421.814 554.191 427.092 531.45L439.078 479.8L366.167 437.242L296.072 466.97Z" fill="#6CA029"/>
<circle cx="214.714" cy="206.933" r="12.204" fill="#6CA029"/>
</svg>
